<?xml version="1.0" encoding="utf-8"?>
<!-- Generator: Adobe Illustrator 25.2.1, SVG Export Plug-In . SVG Version: 6.00 Build 0)  -->
<svg version="1.1" id="Layer_1" xmlns="http://www.w3.org/2000/svg" xmlns:xlink="http://www.w3.org/1999/xlink" x="0px" y="0px"
	 viewBox="0 0 80 80" style="enable-background:new 0 0 80 80;" xml:space="preserve">
<style type="text/css">
	.st0{fill:none;}
	.st1{fill:none;stroke:#121212;stroke-width:2;stroke-miterlimit:10;}
	.st2{fill:#EB5A43;}
</style>
<g id="Oval">
	<circle class="st0" cx="40" cy="40.1" r="40"/>
	<circle class="st1" cx="40" cy="40.1" r="39"/>
</g>
<path id="Shape" class="st2" d="M39.7,47.4c0-4.8,3.9-8.7,8.7-8.7s8.7,3.9,8.7,8.7s-3.9,8.7-8.7,8.7C43.5,56.1,39.7,52.2,39.7,47.4
	C39.7,47.4,39.7,47.4,39.7,47.4z M25,54.8v-28h4V28c0,1.2,0.7,2.2,1.8,2.6c1.4,0.5,2.9-0.3,3.4-1.7c0.1-0.3,0.1-0.6,0.1-0.9v-1.3h12
	V28c0,1.2,0.7,2.2,1.8,2.6c1.4,0.5,2.9-0.3,3.4-1.7c0.1-0.3,0.1-0.6,0.1-0.9v-1.3h4v12c-0.8-0.7-1.7-1.3-2.7-1.7v-2.4H27.7v17.3H38
	c0.4,1,1,1.9,1.7,2.7H25z M47.7,28.1v-2.7c0-0.7,0.6-1.3,1.3-1.3s1.3,0.6,1.3,1.3v2.7c0,0.7-0.6,1.3-1.3,1.3S47.7,28.8,47.7,28.1z
	 M30.3,28.1v-2.7c0-0.7,0.6-1.3,1.3-1.3c0.7,0,1.3,0.6,1.3,1.3v2.7c0,0.7-0.6,1.3-1.3,1.3C30.9,29.4,30.3,28.8,30.3,28.1z"/>
</svg>
