<?xml version="1.0" encoding="utf-8"?>
<!-- Generator: Adobe Illustrator 25.2.1, SVG Export Plug-In . SVG Version: 6.00 Build 0)  -->
<svg version="1.1" id="Layer_1" xmlns="http://www.w3.org/2000/svg" xmlns:xlink="http://www.w3.org/1999/xlink" x="0px" y="0px"
	 viewBox="0 0 56 64" style="enable-background:new 0 0 56 64;" xml:space="preserve">
<style type="text/css">
	.st0{fill:#EB5A43;}
</style>
<path id="Combined_Shape" class="st0" d="M34.1,63.1L28,56.9l-6.1,6.2c-0.3,0.4-0.8,0.6-1.3,0.6c-1,0-1.8-0.8-1.8-1.8c0,0,0,0,0,0
	v-5.7H9.5c-5.1,0-9.2-4.2-9.2-9.3V9.6c0-5.1,4.1-9.3,9.2-9.3h38.8c4.1,0,7.4,3.3,7.4,7.4v5.6c0,1-0.8,1.9-1.8,1.9h-9.2v26.1h9.2
	c1,0,1.8,0.8,1.8,1.9v5.6c0,4.1-3.3,7.4-7.4,7.4H37.2v5.7c0,1-0.8,1.9-1.8,1.9C34.9,63.7,34.4,63.5,34.1,63.1L34.1,63.1z M29.3,53
	l4.2,4.3V46.8c-3.3,2.5-7.8,2.5-11.1,0v10.4l4.2-4.3C27.4,52.2,28.6,52.2,29.3,53C29.3,53,29.3,53,29.3,53L29.3,53z M44.6,48.7
	c0,2,1.7,3.7,3.7,3.7c2,0,3.7-1.7,3.7-3.7c0,0,0,0,0,0V45h-7.4V48.7z M37.2,39.4v13h4.7c-0.6-1.1-1-2.4-1-3.7v-41
	c0-1.3,0.3-2.6,1-3.7H9.5C6.4,4,4,6.5,4,9.6v37.2c0,3.1,2.5,5.6,5.5,5.6h9.2v-13c0-0.6,0.1-1.2,0.2-1.9H9.5c-1,0-1.8-0.8-1.8-1.9
	c0-1,0.8-1.8,1.8-1.8h11.1c0.8-1.1,1.9-2.1,3.2-2.7c1.3-0.7,2.7-1,4.2-1C33.1,30.2,37.2,34.3,37.2,39.4z M22.5,39.4
	c0,3.1,2.5,5.5,5.6,5.5c3.1,0,5.5-2.5,5.5-5.6c0-3.1-2.5-5.5-5.5-5.5C24.9,33.9,22.5,36.4,22.5,39.4z M44.6,7.7v3.7H52V7.7
	c0-2-1.7-3.7-3.7-3.7C46.3,4,44.6,5.7,44.6,7.7C44.6,7.7,44.6,7.7,44.6,7.7z M9.5,26.4c-1,0-1.9-0.8-1.9-1.9s0.8-1.9,1.9-1.9h22.2
	c1,0,1.9,0.8,1.9,1.9s-0.8,1.9-1.9,1.9H9.5z M9.5,15.2c-1,0-1.9-0.8-1.9-1.9s0.8-1.9,1.9-1.9h22.2c1,0,1.9,0.8,1.9,1.9
	s-0.8,1.9-1.9,1.9H9.5z"/>
</svg>
