<?xml version="1.0" encoding="utf-8"?>
<!-- Generator: Adobe Illustrator 25.2.1, SVG Export Plug-In . SVG Version: 6.00 Build 0)  -->
<svg version="1.1" id="Layer_1" xmlns="http://www.w3.org/2000/svg" xmlns:xlink="http://www.w3.org/1999/xlink" x="0px" y="0px"
	 viewBox="0 0 56 64" style="enable-background:new 0 0 56 64;" xml:space="preserve">
<style type="text/css">
	.st0{fill:#EB5A43;}
</style>
<path id="Combined_Shape" class="st0" d="M1.6,60C0.7,60,0,59.3,0,58.4v-1.6c0-1.8,0.5-3.6,1.4-5.1c0.9-1.5,2.2-2.7,3.7-3.5
	c-2.5-2.6-2.4-6.8,0.3-9.3c2.6-2.5,6.8-2.4,9.3,0.3c2.4,2.5,2.4,6.5,0,9c1.1,0.6,2,1.4,2.8,2.3c1.1-2.4,2.9-4.3,5.2-5.5
	c-3.4-2.9-3.9-8.1-0.9-11.6s8.1-3.9,11.6-0.9c3.4,2.9,3.9,8.1,0.9,11.6c-0.3,0.3-0.6,0.6-0.9,0.9c2.3,1.2,4.1,3.1,5.2,5.5
	c0.8-0.9,1.7-1.7,2.8-2.3c-2.5-2.6-2.4-6.8,0.2-9.3c2.6-2.5,6.8-2.4,9.3,0.2c2.4,2.5,2.4,6.5,0,9c3.2,1.7,5.2,5,5.2,8.6v1.6
	c0,0.9-0.7,1.6-1.6,1.6H1.6z M39.5,56.7h13.2c0-1.7-0.7-3.4-2-4.6c-1.3-1.2-3-1.9-4.7-1.9C42.4,50.2,39.5,53.1,39.5,56.7z
	 M19.8,55.1v1.6h16.4v-1.6c0-4.5-3.7-8.2-8.2-8.2S19.8,50.5,19.8,55.1z M3.3,56.7h13.2c0-3.6-2.9-6.6-6.6-6.6
	C6.3,50.1,3.3,53.1,3.3,56.7z M42.8,43.6c0,1.8,1.5,3.3,3.3,3.3s3.3-1.5,3.3-3.3s-1.5-3.3-3.3-3.3c0,0,0,0,0,0
	C44.2,40.3,42.8,41.8,42.8,43.6z M6.7,43.6c0,1.8,1.5,3.3,3.3,3.3s3.3-1.5,3.3-3.3s-1.5-3.3-3.3-3.3C8.1,40.3,6.7,41.8,6.7,43.6
	L6.7,43.6z M23.1,38.7c0,2.7,2.2,4.9,4.9,4.9s4.9-2.2,4.9-4.9s-2.2-4.9-4.9-4.9l0,0C25.3,33.8,23.1,36,23.1,38.7z M43.2,26.7
	l-6.1-6.3h-3.9l-3.9,6c-0.5,0.8-1.5,1-2.3,0.5c-0.2-0.1-0.4-0.3-0.5-0.5l-3.9-6h-3.9l-6.1,6.3c-0.3,0.3-0.7,0.5-1.2,0.5
	c-0.9,0-1.6-0.7-1.6-1.6v-5.3c-4.4-0.9-7.3-5.2-6.4-9.7C4.3,6.7,7.7,4,11.6,4h32.8c4.5,0,8.2,3.7,8.2,8.2c0,3.9-2.7,7.3-6.6,8v5.3
	c0,0.9-0.7,1.6-1.6,1.6C44,27.2,43.5,27,43.2,26.7L43.2,26.7z M23.6,17.1c0.6,0,1.1,0.3,1.4,0.8l3,4.6l3-4.6
	c0.3-0.5,0.8-0.8,1.4-0.8h5.5c0.4,0,0.9,0.2,1.2,0.5l3.7,3.9v-2.7c0-0.9,0.7-1.6,1.6-1.6c2.7,0,4.9-2.2,4.9-4.9s-2.2-4.9-4.9-4.9
	H11.6c-2.7,0-4.9,2.2-4.9,4.9s2.2,4.9,4.9,4.9c0.9,0,1.6,0.7,1.6,1.6v2.7l3.7-3.9c0.3-0.3,0.7-0.5,1.2-0.5H23.6z M14.9,13.8
	c-0.9,0-1.6-0.7-1.6-1.6c0-0.9,0.7-1.6,1.6-1.6h26.2c0.9,0,1.6,0.7,1.6,1.6c0,0.9-0.7,1.6-1.6,1.6H14.9z"/>
</svg>
