<?xml version="1.0" encoding="utf-8"?>
<!-- Generator: Adobe Illustrator 25.2.1, SVG Export Plug-In . SVG Version: 6.00 Build 0)  -->
<svg version="1.1" id="Layer_1" xmlns="http://www.w3.org/2000/svg" xmlns:xlink="http://www.w3.org/1999/xlink" x="0px" y="0px"
	 viewBox="0 0 48 48" style="enable-background:new 0 0 48 48;" xml:space="preserve">
<style type="text/css">
	.st0{fill:#EB5A43;}
	.st1{fill:#FFFFFF;}
</style>
<circle id="Oval" class="st0" cx="24" cy="24" r="24"/>
<path class="st1" d="M32,20.7c-0.1-2.9-1.7-4.5-4.7-4.7c-0.9,0-1.1,0-3.3,0s-2.4,0-3.3,0c-2.9,0.1-4.5,1.7-4.7,4.7
	c0,0.9,0,1.1,0,3.3s0,2.4,0,3.3c0.1,2.9,1.7,4.5,4.7,4.7c0.9,0,1.1,0,3.3,0s2.4,0,3.3,0c2.9-0.1,4.5-1.7,4.7-4.7c0-0.9,0-1.1,0-3.3
	S32,21.6,32,20.7z M30.6,26.7c-0.1,2.4-1.4,3.7-3.8,3.8c-0.7,0-0.9,0-2.7,0s-2,0-2.7,0c-2.4-0.1-3.7-1.4-3.8-3.8c0-0.7,0-0.9,0-2.7
	s0-2,0-2.7c0.1-2.4,1.4-3.7,3.8-3.8c0.7,0,0.9,0,2.7,0s2,0,2.7,0c2.4,0.1,3.7,1.4,3.8,3.8c0,0.7,0,0.9,0,2.7S30.6,26,30.6,26.7z"/>
<path class="st1" d="M26.5,23c0-0.9-0.6-1.4-1.5-1.5c-0.3,0-0.4,0-1,0s-0.8,0-1,0c-0.9,0-1.4,0.6-1.5,1.5c0,0.3,0,0.4,0,1s0,0.8,0,1
	c0,0.9,0.6,1.4,1.5,1.5c0.3,0,0.4,0,1,0s0.8,0,1,0c0.9,0,1.4-0.6,1.5-1.5c0-0.3,0-0.4,0-1S26.5,23.2,26.5,23z M26.1,24.9
	c0,0.8-0.5,1.2-1.2,1.2c-0.2,0-0.3,0-0.9,0s-0.6,0-0.9,0c-0.8,0-1.2-0.5-1.2-1.2c0-0.2,0-0.3,0-0.9s0-0.6,0-0.9
	c0-0.8,0.5-1.2,1.2-1.2c0.2,0,0.3,0,0.9,0s0.6,0,0.9,0c0.8,0,1.2,0.5,1.2,1.2c0,0.2,0,0.3,0,0.9S26.1,24.6,26.1,24.9z"/>
<path id="instagram_2_" class="st1" d="M20.3,21.2c-0.5,0-1-0.4-1-1c0,0,0,0,0,0c0,0,0,0,0,0c0-0.5,0.4-1,1-1c0,0,0,0,0,0
	c0,0,0,0,0,0c0.5,0,1,0.4,1,1c0,0,0,0,0,0c0,0,0,0,0,0C21.3,20.7,20.9,21.2,20.3,21.2C20.4,21.2,20.4,21.2,20.3,21.2
	C20.4,21.2,20.4,21.2,20.3,21.2z"/>
</svg>
