<?xml version="1.0" encoding="utf-8"?>
<!-- Generator: Adobe Illustrator 25.2.1, SVG Export Plug-In . SVG Version: 6.00 Build 0)  -->
<svg version="1.1" id="Layer_1" xmlns="http://www.w3.org/2000/svg" xmlns:xlink="http://www.w3.org/1999/xlink" x="0px" y="0px"
	 viewBox="0 0 80 80" style="enable-background:new 0 0 80 80;" xml:space="preserve">
<style type="text/css">
	.st0{fill:none;}
	.st1{fill:none;stroke:#121212;stroke-width:2;stroke-miterlimit:10;}
	.st2{fill:#EB5A43;}
</style>
<g id="Oval">
	<circle class="st0" cx="40" cy="40" r="40"/>
	<circle class="st1" cx="40" cy="40" r="39"/>
</g>
<path id="Shape" class="st2" d="M31.7,56.3l-4.1-5.2l6.3-2.3l2.6,3.4c0.4,0.6,1,1,1.7,1.2l0,0c0.5,0.2,0.7,0.7,0.6,1.1
	c-0.1,0.3-0.3,0.5-0.6,0.6l-4.5,1.6C33,57.2,32.2,56.9,31.7,56.3L31.7,56.3z M21.3,45.4c-1-2.8,0.4-5.8,3.1-6.8c0,0,0,0,0.1,0
	l5.1-1.8l3.7,10.1l-5.1,1.8C25.5,49.6,22.4,48.2,21.3,45.4z M35.4,46l-0.7-2c3.8-0.7,7.7-0.7,11.5-0.1l-4.8-13.1
	c-2.5,2.9-5.5,5.3-8.9,7.2l-0.7-2c3-1.6,6.5-4.5,10.4-9.4l7.4,20.1C43.5,45.4,38.8,45.4,35.4,46L35.4,46z M55.5,40.7
	c1.2-2.4,1.3-5.2,0.4-7.7c-0.9-2.5-2.8-4.6-5.2-5.7l1.1-2.3c3,1.4,5.4,4,6.5,7.2c1.1,3.1,0.9,6.6-0.5,9.6L55.5,40.7z M51.6,38.8
	c0.7-1.4,0.8-3,0.2-4.4c-0.5-1.5-1.6-2.7-3-3.3l1.1-2.2c2,0.9,3.5,2.6,4.3,4.7c0.7,2.1,0.6,4.3-0.4,6.3L51.6,38.8z"/>
</svg>
