<?xml version="1.0" encoding="utf-8"?>
<!-- Generator: Adobe Illustrator 25.2.1, SVG Export Plug-In . SVG Version: 6.00 Build 0)  -->
<svg version="1.1" id="Layer_1" xmlns="http://www.w3.org/2000/svg" xmlns:xlink="http://www.w3.org/1999/xlink" x="0px" y="0px"
	 viewBox="0 0 48 48" style="enable-background:new 0 0 48 48;" xml:space="preserve">
<style type="text/css">
	.st0{fill:#EB5A43;}
	.st1{fill:#FFFFFF;}
</style>
<circle id="Oval" class="st0" cx="24" cy="24" r="24"/>
<path id="twitter" class="st1" d="M32,19.5c-0.6,0.3-1.2,0.4-1.9,0.5c0.7-0.4,1.2-1.1,1.4-1.8c-0.6,0.4-1.3,0.7-2.1,0.8
	c-1.2-1.3-3.3-1.4-4.6-0.1c-0.9,0.8-1.2,2-1,3.1c-2.6-0.1-5.1-1.4-6.8-3.4c-0.9,1.5-0.4,3.4,1,4.4c-0.5,0-1-0.2-1.5-0.4
	c0,1.6,1.1,2.9,2.6,3.3c-0.5,0.1-1,0.1-1.5,0.1c0.4,1.3,1.7,2.3,3.1,2.3c-1.4,1.1-3.1,1.6-4.9,1.4c1.5,1,3.2,1.5,5,1.5
	c5.1,0,9.3-4.1,9.3-9.2c0-0.2,0-0.4,0-0.5C31,20.8,31.6,20.2,32,19.5z"/>
</svg>
